<svg version="1.1" xmlns="http://www.w3.org/2000/svg" xmlns:xlink="http://www.w3.org/1999/xlink" width="1236" height="804"><defs/><g><g transform="translate(-54,-54) scale(1,1)"><rect fill="#C0C0C0" stroke="none" x="439" y="71" width="169.60000000000002" height="15" opacity="0.2"/></g><g transform="translate(-54,-54) scale(1,1)"><rect fill="#C0C0C0" stroke="none" x="439" y="85" width="424" height="218" opacity="0.2"/></g><g transform="translate(-54,-54) scale(1,1)"><rect fill="#ffffff" stroke="none" x="432" y="79" width="424" height="217"/></g><g transform="translate(-54,-54) scale(1,1)"><path fill="none" stroke="#000000" d="M 432 79 L 856 79 L 856 296 L 432 296 L 432 79 Z Z" stroke-miterlimit="10"/></g><g transform="translate(-54,-54) scale(1,1)"><rect fill="#ffffff" stroke="none" x="432" y="64" width="169.60000000000002" height="15"/></g><g transform="translate(-54,-54) scale(1,1)"><path fill="none" stroke="#000000" d="M 432 64 L 601.6 64 L 601.6 79 L 432 79 L 432 64 Z Z" stroke-miterlimit="10"/></g><g transform="translate(-54,-54) scale(1,1)"><rect fill="#ffffff" stroke="none" x="432" y="78" width="424" height="218"/></g><g transform="translate(-54,-54) scale(1,1)"><path fill="none" stroke="#000000" d="M 432 78 L 856 78 L 856 296 L 432 296 L 432 78 Z Z" stroke-miterlimit="10"/></g><g transform="translate(-54,-54) scale(1,1)"><g><path fill="none" stroke="none"/><text fill="#000000" stroke="none" font-family="Arial" font-size="13px" font-style="normal" font-weight="bold" text-decoration="none" x="521.29345703125" y="98.5">com.llajtarootvalley.tictactoe.model.service</text></g></g><g transform="translate(-54,-54) scale(1,1)"><rect fill="#C0C0C0" stroke="none" x="455" y="119" width="391.705078125" height="160" opacity="0.2"/></g><g transform="translate(-54,-54) scale(1,1)"><rect fill="#ffffff" stroke="none" x="448" y="112" width="391.705078125" height="160"/></g><g transform="translate(-54,-54) scale(1,1)"><path fill="none" stroke="#000000" d="M 448 112 L 839.705078125 112 L 839.705078125 272 L 448 272 L 448 112 Z Z" stroke-miterlimit="10"/></g><g transform="translate(-54,-54) scale(1,1)"><path fill="none" stroke="#000000" d="M 448 137 L 839.705078125 137" stroke-miterlimit="10"/></g><g transform="translate(-54,-54) scale(1,1)"><path fill="none" stroke="#000000" d="M 448 190 L 839.705078125 190" stroke-miterlimit="10"/></g><g transform="translate(-54,-54) scale(1,1)"><g><path fill="none" stroke="none"/><text fill="#000000" stroke="none" font-family="Arial" font-size="13px" font-style="normal" font-weight="bold" text-decoration="none" x="594.60107421875" y="131.5">TicTacToeReglas</text></g></g><g transform="translate(-54,-54) scale(1,1)"><g><path fill="none" stroke="none"/><text fill="#000000" stroke="none" font-family="Arial" font-size="13px" font-style="normal" font-weight="normal" text-decoration="none" x="453" y="154.5">-tableroGlobal: TableroGlobal</text></g></g><g transform="translate(-54,-54) scale(1,1)"><g><path fill="none" stroke="none"/><text fill="#000000" stroke="none" font-family="Arial" font-size="13px" font-style="normal" font-weight="normal" text-decoration="none" x="453" y="169.5">-jugadorActual: Jugador</text></g></g><g transform="translate(-54,-54) scale(1,1)"><g><path fill="none" stroke="none"/><text fill="#000000" stroke="none" font-family="Arial" font-size="13px" font-style="normal" font-weight="normal" text-decoration="none" x="453" y="184.5">-estadoJuego</text></g></g><g transform="translate(-54,-54) scale(1,1)"><g><path fill="none" stroke="none"/><text fill="#000000" stroke="none" font-family="Arial" font-size="13px" font-style="normal" font-weight="normal" text-decoration="none" x="453" y="207.5">+reiniciarJuego()()</text></g></g><g transform="translate(-54,-54) scale(1,1)"><g><path fill="none" stroke="none"/><text fill="#000000" stroke="none" font-family="Arial" font-size="13px" font-style="normal" font-weight="normal" text-decoration="none" x="453" y="222.5">+realizarMovimiento(filaT: int, colT: int, filaC: int, colC: int): boolean</text></g></g><g transform="translate(-54,-54) scale(1,1)"><g><path fill="none" stroke="none"/><text fill="#000000" stroke="none" font-family="Arial" font-size="13px" font-style="normal" font-weight="normal" text-decoration="none" x="453" y="237.5">+getTableroGlobal(): TableroGlobal</text></g></g><g transform="translate(-54,-54) scale(1,1)"><g><path fill="none" stroke="none"/><text fill="#000000" stroke="none" font-family="Arial" font-size="13px" font-style="normal" font-weight="normal" text-decoration="none" x="453" y="252.5">+getJugadorActual(): Jugador</text></g></g><g transform="translate(-54,-54) scale(1,1)"><g><path fill="none" stroke="none"/><text fill="#000000" stroke="none" font-family="Arial" font-size="13px" font-style="normal" font-weight="normal" text-decoration="none" x="453" y="267.5">+getEstadoJuego(): EstadoJuego</text></g></g><g transform="translate(-54,-54) scale(1,1)"><rect fill="#C0C0C0" stroke="none" x="439" y="407" width="169.60000000000002" height="15" opacity="0.2"/></g><g transform="translate(-54,-54) scale(1,1)"><rect fill="#C0C0C0" stroke="none" x="439" y="421" width="424" height="434" opacity="0.2"/></g><g transform="translate(-54,-54) scale(1,1)"><rect fill="#ffffff" stroke="none" x="432" y="415" width="424" height="433"/></g><g transform="translate(-54,-54) scale(1,1)"><path fill="none" stroke="#000000" d="M 432 415 L 856 415 L 856 848 L 432 848 L 432 415 Z Z" stroke-miterlimit="10"/></g><g transform="translate(-54,-54) scale(1,1)"><rect fill="#ffffff" stroke="none" x="432" y="400" width="169.60000000000002" height="15"/></g><g transform="translate(-54,-54) scale(1,1)"><path fill="none" stroke="#000000" d="M 432 400 L 601.6 400 L 601.6 415 L 432 415 L 432 400 Z Z" stroke-miterlimit="10"/></g><g transform="translate(-54,-54) scale(1,1)"><rect fill="#ffffff" stroke="none" x="432" y="414" width="424" height="434"/></g><g transform="translate(-54,-54) scale(1,1)"><path fill="none" stroke="#000000" d="M 432 414 L 856 414 L 856 848 L 432 848 L 432 414 Z Z" stroke-miterlimit="10"/></g><g transform="translate(-54,-54) scale(1,1)"><g><path fill="none" stroke="none"/><text fill="#000000" stroke="none" font-family="Arial" font-size="13px" font-style="normal" font-weight="bold" text-decoration="none" x="526.34619140625" y="434.5">com.llajtarootvalley.tictactoe.model.entity</text></g></g><g transform="translate(-54,-54) scale(1,1)"><rect fill="#C0C0C0" stroke="none" x="455" y="455" width="392" height="136" opacity="0.2"/></g><g transform="translate(-54,-54) scale(1,1)"><rect fill="#ffffff" stroke="none" x="448" y="448" width="392" height="136"/></g><g transform="translate(-54,-54) scale(1,1)"><path fill="none" stroke="#000000" d="M 448 448 L 840 448 L 840 584 L 448 584 L 448 448 Z Z" stroke-miterlimit="10"/></g><g transform="translate(-54,-54) scale(1,1)"><path fill="none" stroke="#000000" d="M 448 473 L 840 473" stroke-miterlimit="10"/></g><g transform="translate(-54,-54) scale(1,1)"><path fill="none" stroke="#000000" d="M 448 526 L 840 526" stroke-miterlimit="10"/></g><g transform="translate(-54,-54) scale(1,1)"><g><path fill="none" stroke="none"/><text fill="#000000" stroke="none" font-family="Arial" font-size="13px" font-style="normal" font-weight="bold" text-decoration="none" x="603.892333984375" y="467.5">TableroGlobal</text></g></g><g transform="translate(-54,-54) scale(1,1)"><g><path fill="none" stroke="none"/><text fill="#000000" stroke="none" font-family="Arial" font-size="13px" font-style="normal" font-weight="normal" text-decoration="none" x="453" y="490.5">-tablerosLocales: TableroLocal[][]</text></g></g><g transform="translate(-54,-54) scale(1,1)"><g><path fill="none" stroke="none"/><text fill="#000000" stroke="none" font-family="Arial" font-size="13px" font-style="normal" font-weight="normal" text-decoration="none" x="453" y="505.5">-siguienteFilaTablero: int = -1</text></g></g><g transform="translate(-54,-54) scale(1,1)"><g><path fill="none" stroke="none"/><text fill="#000000" stroke="none" font-family="Arial" font-size="13px" font-style="normal" font-weight="normal" text-decoration="none" x="453" y="520.5">-siguienteColTablero: int = -1</text></g></g><g transform="translate(-54,-54) scale(1,1)"><g><path fill="none" stroke="none"/><text fill="#000000" stroke="none" font-family="Arial" font-size="13px" font-style="normal" font-weight="normal" text-decoration="none" x="453" y="543.5">+obtenerTableroLocal(fila: int, col: int): TableroLocal</text></g></g><g transform="translate(-54,-54) scale(1,1)"><g><path fill="none" stroke="none"/><text fill="#000000" stroke="none" font-family="Arial" font-size="13px" font-style="normal" font-weight="normal" text-decoration="none" x="453" y="558.5">+actualizarProximoTableroObligatorio(filaLocal: int, colLocal: int)</text></g></g><g transform="translate(-54,-54) scale(1,1)"><g><path fill="none" stroke="none"/><text fill="#000000" stroke="none" font-family="Arial" font-size="13px" font-style="normal" font-weight="normal" text-decoration="none" x="453" y="573.5">+esMovimientoLibre(): boolean</text></g></g><g transform="translate(-54,-54) scale(1,1)"><rect fill="#C0C0C0" stroke="none" x="455" y="679" width="391" height="152" opacity="0.2"/></g><g transform="translate(-54,-54) scale(1,1)"><rect fill="#ffffff" stroke="none" x="448" y="672" width="391" height="152"/></g><g transform="translate(-54,-54) scale(1,1)"><path fill="none" stroke="#000000" d="M 448 672 L 839 672 L 839 824 L 448 824 L 448 672 Z Z" stroke-miterlimit="10"/></g><g transform="translate(-54,-54) scale(1,1)"><path fill="none" stroke="#000000" d="M 448 697 L 839 697" stroke-miterlimit="10"/></g><g transform="translate(-54,-54) scale(1,1)"><path fill="none" stroke="#000000" d="M 448 750 L 839 750" stroke-miterlimit="10"/></g><g transform="translate(-54,-54) scale(1,1)"><g><path fill="none" stroke="none"/><text fill="#000000" stroke="none" font-family="Arial" font-size="13px" font-style="normal" font-weight="bold" text-decoration="none" x="606.642333984375" y="691.5">TableroLocal</text></g></g><g transform="translate(-54,-54) scale(1,1)"><g><path fill="none" stroke="none"/><text fill="#000000" stroke="none" font-family="Arial" font-size="13px" font-style="normal" font-weight="normal" text-decoration="none" x="453" y="714.5">-casillas: Jugador[][]</text></g></g><g transform="translate(-54,-54) scale(1,1)"><g><path fill="none" stroke="none"/><text fill="#000000" stroke="none" font-family="Arial" font-size="13px" font-style="normal" font-weight="normal" text-decoration="none" x="453" y="729.5">-estadoActual: EstadoJuego</text></g></g><g transform="translate(-54,-54) scale(1,1)"><g><path fill="none" stroke="none"/><text fill="#000000" stroke="none" font-family="Arial" font-size="13px" font-style="normal" font-weight="normal" text-decoration="none" x="453" y="744.5">-fichasColocadas: int</text></g></g><g transform="translate(-54,-54) scale(1,1)"><g><path fill="none" stroke="none"/><text fill="#000000" stroke="none" font-family="Arial" font-size="13px" font-style="normal" font-weight="normal" text-decoration="none" x="453" y="767.5">+marcarCasilla(fila: int, col: int, jugador: Jugador): boolean</text></g></g><g transform="translate(-54,-54) scale(1,1)"><g><path fill="none" stroke="none"/><text fill="#000000" stroke="none" font-family="Arial" font-size="13px" font-style="normal" font-weight="normal" text-decoration="none" x="453" y="782.5">+getEstadoActual(): EstadoJuego</text></g></g><g transform="translate(-54,-54) scale(1,1)"><g><path fill="none" stroke="none"/><text fill="#000000" stroke="none" font-family="Arial" font-size="13px" font-style="normal" font-weight="normal" text-decoration="none" x="453" y="797.5">+getGanador(): Jugador</text></g></g><g transform="translate(-54,-54) scale(1,1)"><g><path fill="none" stroke="none"/><text fill="#000000" stroke="none" font-family="Arial" font-size="13px" font-style="normal" font-weight="normal" text-decoration="none" x="453" y="812.5">+estaJugable(): boolean</text></g></g><g transform="translate(-54,-54) scale(1,1)"><rect fill="#C0C0C0" stroke="none" x="1031" y="407" width="102.40000000000009" height="15" opacity="0.2"/></g><g transform="translate(-54,-54) scale(1,1)"><rect fill="#C0C0C0" stroke="none" x="1031" y="421" width="256" height="433" opacity="0.2"/></g><g transform="translate(-54,-54) scale(1,1)"><rect fill="#ffffff" stroke="none" x="1024" y="415" width="256" height="432"/></g><g transform="translate(-54,-54) scale(1,1)"><path fill="none" stroke="#000000" d="M 1024 415 L 1280 415 L 1280 847 L 1024 847 L 1024 415 Z Z" stroke-miterlimit="10"/></g><g transform="translate(-54,-54) scale(1,1)"><rect fill="#ffffff" stroke="none" x="1024" y="400" width="102.40000000000009" height="15"/></g><g transform="translate(-54,-54) scale(1,1)"><path fill="none" stroke="#000000" d="M 1024 400 L 1126.4 400 L 1126.4 415 L 1024 415 L 1024 400 Z Z" stroke-miterlimit="10"/></g><g transform="translate(-54,-54) scale(1,1)"><rect fill="#ffffff" stroke="none" x="1024" y="414" width="256" height="433"/></g><g transform="translate(-54,-54) scale(1,1)"><path fill="none" stroke="#000000" d="M 1024 414 L 1280 414 L 1280 847 L 1024 847 L 1024 414 Z Z" stroke-miterlimit="10"/></g><g transform="translate(-54,-54) scale(1,1)"><g><path fill="none" stroke="none"/><text fill="#000000" stroke="none" font-family="Arial" font-size="13px" font-style="normal" font-weight="bold" text-decoration="none" x="1051.68798828125" y="434.5">com.llajtarootvalley.tictactoe.model</text></g></g><g transform="translate(-54,-54) scale(1,1)"><rect fill="#C0C0C0" stroke="none" x="1095" y="471" width="136" height="136" opacity="0.2"/></g><g transform="translate(-54,-54) scale(1,1)"><rect fill="#ffffff" stroke="none" x="1088" y="464" width="136" height="136"/></g><g transform="translate(-54,-54) scale(1,1)"><path fill="none" stroke="#000000" d="M 1088 464 L 1224 464 L 1224 600 L 1088 600 L 1088 464 Z Z" stroke-miterlimit="10"/></g><g transform="translate(-54,-54) scale(1,1)"><path fill="none" stroke="#000000" d="M 1088 555 L 1224 555" stroke-miterlimit="10"/></g><g transform="translate(-54,-54) scale(1,1)"><path fill="none" stroke="#000000" d="M 1088 578 L 1224 578" stroke-miterlimit="10"/></g><g transform="translate(-54,-54) scale(1,1)"><path fill="none" stroke="#000000" d="M 488 -760 L 497 -760" stroke-miterlimit="10"/></g><g transform="translate(-54,-54) scale(1,1)"><path fill="none" stroke="#000000" d="M 1088 502 L 1224 502" stroke-miterlimit="10"/></g><g transform="translate(-54,-54) scale(1,1)"><g><path fill="none" stroke="none"/><text fill="#000000" stroke="none" font-family="Arial" font-size="13px" font-style="normal" font-weight="normal" text-decoration="none" x="1112.635986328125" y="481.5">«enumeration»</text></g></g><g transform="translate(-54,-54) scale(1,1)"><g><path fill="none" stroke="none"/><text fill="#000000" stroke="none" font-family="Arial" font-size="13px" font-style="normal" font-weight="bold" text-decoration="none" x="1132.510498046875" y="496.5">Jugador</text></g></g><g transform="translate(-54,-54) scale(1,1)"><g><path fill="none" stroke="none"/><text fill="#000000" stroke="none" font-family="Arial" font-size="13px" font-style="normal" font-weight="normal" text-decoration="none" x="1093" y="572.5">-simbolo: String</text></g></g><g transform="translate(-54,-54) scale(1,1)"><g><path fill="none" stroke="none"/><text fill="#000000" stroke="none" font-family="Arial" font-size="13px" font-style="normal" font-weight="normal" text-decoration="none" x="1093" y="595.5">+getSimbolo(): String</text></g></g><g transform="translate(-54,-54) scale(1,1)"><g><path fill="none" stroke="none"/><text fill="#000000" stroke="none" font-family="Arial" font-size="13px" font-style="normal" font-weight="normal" text-decoration="none" x="1093" y="519.5">X</text></g></g><g transform="translate(-54,-54) scale(1,1)"><g><path fill="none" stroke="none"/><text fill="#000000" stroke="none" font-family="Arial" font-size="13px" font-style="normal" font-weight="normal" text-decoration="none" x="1093" y="534.5">O</text></g></g><g transform="translate(-54,-54) scale(1,1)"><g><path fill="none" stroke="none"/><text fill="#000000" stroke="none" font-family="Arial" font-size="13px" font-style="normal" font-weight="normal" text-decoration="none" x="1093" y="549.5">VACIO</text></g></g><g transform="translate(-54,-54) scale(1,1)"><rect fill="#C0C0C0" stroke="none" x="1095" y="695" width="135" height="119" opacity="0.2"/></g><g transform="translate(-54,-54) scale(1,1)"><rect fill="#ffffff" stroke="none" x="1088" y="688" width="135" height="119"/></g><g transform="translate(-54,-54) scale(1,1)"><path fill="none" stroke="#000000" d="M 1088 688 L 1223 688 L 1223 807 L 1088 807 L 1088 688 Z Z" stroke-miterlimit="10"/></g><g transform="translate(-54,-54) scale(1,1)"><path fill="none" stroke="#000000" d="M 1088 726 L 1223 726" stroke-miterlimit="10"/></g><g transform="translate(-54,-54) scale(1,1)"><g><path fill="none" stroke="none"/><text fill="#000000" stroke="none" font-family="Arial" font-size="13px" font-style="normal" font-weight="normal" text-decoration="none" x="1112.135986328125" y="705.5">«enumeration»</text></g></g><g transform="translate(-54,-54) scale(1,1)"><g><path fill="none" stroke="none"/><text fill="#000000" stroke="none" font-family="Arial" font-size="13px" font-style="normal" font-weight="bold" text-decoration="none" x="1117.5537109375" y="720.5">EstadoJuego</text></g></g><g transform="translate(-54,-54) scale(1,1)"><g><path fill="none" stroke="none"/><text fill="#000000" stroke="none" font-family="Arial" font-size="13px" font-style="normal" font-weight="normal" text-decoration="none" x="1093" y="743.5">EN_PROGRESO</text></g></g><g transform="translate(-54,-54) scale(1,1)"><g><path fill="none" stroke="none"/><text fill="#000000" stroke="none" font-family="Arial" font-size="13px" font-style="normal" font-weight="normal" text-decoration="none" x="1093" y="758.5">X_GANA</text></g></g><g transform="translate(-54,-54) scale(1,1)"><g><path fill="none" stroke="none"/><text fill="#000000" stroke="none" font-family="Arial" font-size="13px" font-style="normal" font-weight="normal" text-decoration="none" x="1093" y="773.5">O_GANA</text></g></g><g transform="translate(-54,-54) scale(1,1)"><g><path fill="none" stroke="none"/><text fill="#000000" stroke="none" font-family="Arial" font-size="13px" font-style="normal" font-weight="normal" text-decoration="none" x="1093" y="788.5">EMPATE</text></g></g><g transform="translate(-54,-54) scale(1,1)"><path fill="none" stroke="#000000" d="M 644 447 L 643 273" stroke-miterlimit="10"/></g><g transform="translate(-54,-54) scale(1,1)"><path fill="#FFFFFF" stroke="none" d="M 647.2678534514883 283.13831479668187 L 643 273 L 638.8489569741201 283.1866992591955 L 643.1264346935915 294.99963668491495"/></g><g transform="translate(-54,-54) scale(1,1)"><path fill="none" stroke="#000000" d="M 647.2678534514883 283.13831479668187 L 643 273 L 638.8489569741201 283.1866992591955 L 643.1264346935915 294.99963668491495 L 647.2678534514883 283.13831479668187" stroke-miterlimit="10"/></g><g transform="translate(-54,-54) scale(1,1)"><g><path fill="none" stroke="none"/><text fill="#000000" stroke="none" font-family="Arial" font-size="13px" font-style="normal" font-weight="normal" text-decoration="none" x="646.5" y="363.5">gestiona</text></g></g><g transform="translate(-54,-54) scale(1,1)"><g><path fill="none" stroke="none"/><text fill="#000000" stroke="none" font-family="Arial" font-size="13px" font-style="normal" font-weight="normal" text-decoration="none" x="652.5" y="404.5">1</text></g></g><g transform="translate(-54,-54) scale(1,1)"><g><path fill="none" stroke="none"/><text fill="#000000" stroke="none" font-family="Arial" font-size="13px" font-style="normal" font-weight="normal" text-decoration="none" x="651.5" y="315.5">1</text></g></g><g transform="translate(-54,-54) scale(1,1)"><path fill="none" stroke="#000000" d="M 643 671 L 644 585" stroke-miterlimit="10"/></g><g transform="translate(-54,-54) scale(1,1)"><path fill="#000000" stroke="none" d="M 648.0910705542997 595.2109324608355 L 644 585 L 639.6726041459633 595.1130433165524 L 643.7442033388328 606.9985128603762"/></g><g transform="translate(-54,-54) scale(1,1)"><path fill="none" stroke="#000000" d="M 648.0910705542997 595.2109324608355 L 644 585 L 639.6726041459633 595.1130433165524 L 643.7442033388328 606.9985128603762 L 648.0910705542997 595.2109324608355" stroke-miterlimit="10"/></g><g transform="translate(-54,-54) scale(1,1)"><g><path fill="none" stroke="none"/><text fill="#000000" stroke="none" font-family="Arial" font-size="13px" font-style="normal" font-weight="normal" text-decoration="none" x="648.2958984375" y="635.5">contiene</text></g></g><g transform="translate(-54,-54) scale(1,1)"><g><path fill="none" stroke="none"/><text fill="#000000" stroke="none" font-family="Arial" font-size="13px" font-style="normal" font-weight="normal" text-decoration="none" x="651.5" y="668.5">9</text></g></g><g transform="translate(-54,-54) scale(1,1)"><g><path fill="none" stroke="none"/><text fill="#000000" stroke="none" font-family="Arial" font-size="13px" font-style="normal" font-weight="normal" text-decoration="none" x="652.5" y="603.5">1</text></g></g><g transform="translate(-54,-54) scale(1,1)"><path fill="none" stroke="#000000" d="M 840 748 L 1087 747" stroke-miterlimit="10"/></g><g transform="translate(-54,-54) scale(1,1)"><path fill="none" stroke="#000000" d="M 1076.8544508720142 751.2506273527126 L 1087 747 L 1076.82036598734 742.8316608381402" stroke-miterlimit="10"/></g><g transform="translate(-54,-54) scale(1,1)"><g><path fill="none" stroke="none"/><text fill="#000000" stroke="none" font-family="Arial" font-size="13px" font-style="normal" font-weight="normal" text-decoration="none" x="938.2958984375" y="740.5">tiene estado</text></g></g><g transform="translate(-54,-54) scale(1,1)"><g><path fill="none" stroke="none"/><text fill="#000000" stroke="none" font-family="Arial" font-size="13px" font-style="normal" font-weight="normal" text-decoration="none" x="857.5" y="766.5">1</text></g></g><g transform="translate(-54,-54) scale(1,1)"><g><path fill="none" stroke="none"/><text fill="#000000" stroke="none" font-family="Arial" font-size="13px" font-style="normal" font-weight="normal" text-decoration="none" x="1061.5" y="765.5">1</text></g></g><g transform="translate(-54,-54) scale(1,1)"><path fill="none" stroke="#000000" d="M 1088 528 L 928 528 L 928 712 L 839 712" stroke-miterlimit="10"/></g><g transform="translate(-54,-54) scale(1,1)"><path fill="#000000" stroke="none" d="M 849.1626748576241 707.790482243984 L 839 712 L 849.1626748576241 716.209517756016 L 861 712"/></g><g transform="translate(-54,-54) scale(1,1)"><path fill="none" stroke="#000000" d="M 849.1626748576241 707.790482243984 L 839 712 L 849.1626748576241 716.209517756016 L 861 712 L 849.1626748576241 707.790482243984" stroke-miterlimit="10"/></g><g transform="translate(-54,-54) scale(1,1)"><g><path fill="none" stroke="none"/><text fill="#000000" stroke="none" font-family="Arial" font-size="13px" font-style="normal" font-weight="normal" text-decoration="none" x="951.5" y="524.5">contiene</text></g></g><g transform="translate(-54,-54) scale(1,1)"><g><path fill="none" stroke="none"/><text fill="#000000" stroke="none" font-family="Arial" font-size="13px" font-style="normal" font-weight="normal" text-decoration="none" x="1055.5" y="521.5">1..9</text></g></g><g transform="translate(-54,-54) scale(1,1)"><g><path fill="none" stroke="none"/><text fill="#000000" stroke="none" font-family="Arial" font-size="13px" font-style="normal" font-weight="normal" text-decoration="none" x="856.5" y="705.5">1</text></g></g><g transform="translate(-54,-54) scale(1,1)"><path fill="none" stroke="#000000" d="M 840 208 L 1152 208 L 1152 464" stroke-miterlimit="10"/></g><g transform="translate(-54,-54) scale(1,1)"><path fill="none" stroke="#000000" d="M 1147.7904822439841 453.83732514237585 L 1152 464 L 1156.2095177560159 453.83732514237585" stroke-miterlimit="10"/></g><g transform="translate(-54,-54) scale(1,1)"><rect fill="#C0C0C0" stroke="none" x="71" y="71" width="102" height="15" opacity="0.2"/></g><g transform="translate(-54,-54) scale(1,1)"><rect fill="#C0C0C0" stroke="none" x="71" y="85" width="255" height="217" opacity="0.2"/></g><g transform="translate(-54,-54) scale(1,1)"><rect fill="#ffffff" stroke="none" x="64" y="79" width="255" height="216"/></g><g transform="translate(-54,-54) scale(1,1)"><path fill="none" stroke="#000000" d="M 64 79 L 319 79 L 319 295 L 64 295 L 64 79 Z Z" stroke-miterlimit="10"/></g><g transform="translate(-54,-54) scale(1,1)"><rect fill="#ffffff" stroke="none" x="64" y="64" width="102" height="15"/></g><g transform="translate(-54,-54) scale(1,1)"><path fill="none" stroke="#000000" d="M 64 64 L 166 64 L 166 79 L 64 79 L 64 64 Z Z" stroke-miterlimit="10"/></g><g transform="translate(-54,-54) scale(1,1)"><rect fill="#ffffff" stroke="none" x="64" y="78" width="255" height="217"/></g><g transform="translate(-54,-54) scale(1,1)"><path fill="none" stroke="#000000" d="M 64 78 L 319 78 L 319 295 L 64 295 L 64 78 Z Z" stroke-miterlimit="10"/></g><g transform="translate(-54,-54) scale(1,1)"><g><path fill="none" stroke="none"/><text fill="#000000" stroke="none" font-family="Arial" font-size="13px" font-style="normal" font-weight="bold" text-decoration="none" x="110.697509765625" y="98.5">com.llajtarootvalley.tictactoe</text></g></g><g transform="translate(-54,-54) scale(1,1)"><rect fill="#C0C0C0" stroke="none" x="127" y="159" width="136" height="80" opacity="0.2"/></g><g transform="translate(-54,-54) scale(1,1)"><rect fill="#ffffff" stroke="none" x="120" y="152" width="136" height="80"/></g><g transform="translate(-54,-54) scale(1,1)"><path fill="none" stroke="#000000" d="M 120 152 L 256 152 L 256 232 L 120 232 L 120 152 Z Z" stroke-miterlimit="10"/></g><g transform="translate(-54,-54) scale(1,1)"><path fill="none" stroke="#000000" d="M 120 177 L 256 177" stroke-miterlimit="10"/></g><g transform="translate(-54,-54) scale(1,1)"><path fill="none" stroke="#000000" d="M 120 187 L 256 187" stroke-miterlimit="10"/></g><g transform="translate(-54,-54) scale(1,1)"><g><path fill="none" stroke="none"/><text fill="#000000" stroke="none" font-family="Arial" font-size="13px" font-style="normal" font-weight="bold" text-decoration="none" x="176.4345703125" y="171.5">App</text></g></g><g transform="translate(-54,-54) scale(1,1)"><g><path fill="none" stroke="none"/><text fill="#000000" stroke="none" font-family="Arial" font-size="13px" font-style="normal" font-weight="normal" text-decoration="none" x="125" y="204.5">+main(args: String)</text></g></g><g transform="translate(-54,-54) scale(1,1)"><path fill="none" stroke="#000000" d="M 257 192 L 447 192" stroke-miterlimit="10" stroke-dasharray="3"/></g><g transform="translate(-54,-54) scale(1,1)"><path fill="none" stroke="#000000" d="M 436.83732514237585 196.209517756016 L 447 192 L 436.83732514237585 187.790482243984" stroke-miterlimit="10"/></g><g transform="translate(-54,-54) scale(1,1)"><g><path fill="none" stroke="none"/><text fill="#000000" stroke="none" font-family="Arial" font-size="13px" font-style="normal" font-weight="normal" text-decoration="none" x="322.2958984375" y="183.5">&lt;&lt; usa &gt;&gt;</text></g></g></g></svg>